<svg xmlns="http://www.w3.org/2000/svg" viewBox="0 0 32 32">
  <defs>
    <linearGradient id="g" x1="0" y1="0" x2="1" y2="1">
      <stop offset="0" stop-color="#6d28d9" />
      <stop offset="0.5" stop-color="#c026d3" />
      <stop offset="1" stop-color="#ec4899" />
    </linearGradient>
  </defs>
  <rect width="32" height="32" rx="8" fill="url(#g)" />
  <!-- Miam's mascot, simplified for legibility at 32px: same round-bao
       silhouette as components/dumpling-mascot.tsx, one-color instead of
       two (line art on the gradient, like the whisk this originally
       replaced) so it still reads clearly this small. -->
  <g transform="translate(16,17.5) scale(0.72)">
    <circle cx="0" cy="2" r="11" fill="#fdf6ec" />
    <path
      d="M-4,-6 Q-3,-12.5 0,-13.5 Q3,-12.5 4,-6 Q1.5,-8 0,-7.5 Q-1.5,-8 -4,-6 Z"
      fill="#fdf6ec"
    />
    <g fill="none" stroke="#6d28d9" stroke-width="1" stroke-linecap="round" opacity="0.9">
      <path d="M-2,-6.5 Q-5,-4 -7,0" />
      <path d="M0,-7 Q0,-3 -1,1" />
      <path d="M2,-6.5 Q5,-4 7,0" />
    </g>
    <circle cx="-3.6" cy="3" r="1.15" fill="#6d28d9" />
    <circle cx="3.6" cy="3" r="1.15" fill="#6d28d9" />
    <path
      d="M-2.3,5.8 Q0,7.6 2.3,5.8"
      fill="none"
      stroke="#6d28d9"
      stroke-width="1.1"
      stroke-linecap="round"
    />
  </g>
</svg>
